# AST/ASF file generated using VICON BodyLanguage
# -----------------------------------------------
:version 1.10
:name VICON
:units
  mass 1.0
  length 0.45
  angle deg
:documentation
   .ast/.asf automatically generated from VICON data using
   VICON BodyBuilder and BodyLanguage model FoxedUp or BRILLIANT.MOD
:root
   order TX TY TZ RX RY RZ
   axis XYZ
   position 0 0 0  
   orientation 0 0 0 
:bonedata
  begin
     id 1 
     name lhipjoint
     direction 0.596438 -0.722117 0.35044 
     length 2.43043 
     axis 0 0 0  XYZ
  end
  begin
     id 2 
     name lfemur
     direction 0.34202 -0.939693 0  
     length 7.0339  
     axis 0 0 20  XYZ
    dof rx ry rz
    limits (-160.0 20.0)
           (-70.0 70.0)
           (-60.0 70.0)
  end
  begin
     id 3 
     name ltibia
     direction 0.34202 -0.939693 0   
     length 7.56602   
     axis 0 0 20   XYZ
    dof rx
    limits (-10.0 170.0)
  end
  begin
     id 4 
     name lfoot
     direction 0.0985677 -0.270812 0.957572   
     length 1.85172   
     axis -90 7.62852e-016 20   XYZ
    dof rx rz
    limits (-45.0 90.0)
           (-70.0 20.0)
  end
  begin
     id 5 
     name ltoes
     direction 1.53534e-011 -4.21843e-011 1   
     length 0.929904   
     axis -90 7.62852e-016 20   XYZ
    dof rx
    limits (-90.0 20.0)
  end
  begin
     id 6 
     name rhipjoint
     direction -0.585088 -0.729594 0.354068   
     length 2.40552  
     axis 0 0 0  XYZ 
  end
  begin
     id 7 
     name rfemur
     direction -0.34202 -0.939693 0   
     length 7.12573   
     axis 0 0 -20   XYZ
    dof rx ry rz
    limits (-160.0 20.0)
           (-70.0 70.0)
           (-70.0 60.0)
  end
  begin
     id 8 
     name rtibia
     direction -0.34202 -0.939693 0   
     length 7.35777   
     axis 0 0 -20   XYZ
    dof rx
    limits (-10.0 170.0)
 end
 begin
     id 9 
     name rfoot
     direction -0.120907 -0.33219 0.935431   
     length 2.0994  
     axis -90 -7.62852e-016 -20   XYZ
    dof rx rz
    limits (-45.0 90.0)
           (-20.0 70.0)
  end
  begin
     id 10 
     name rtoes
     direction -1.53577e-011 -4.21787e-011 1   
     length 1.04244   
     axis -90 -7.62852e-016 -20   XYZ
    dof rx
    limits (-90.0 20.0)
  end
  begin
     id 11 
     name lowerback
     direction 0.00268363 0.993603 -0.112896   
     length 2.15839   
     axis 0 0 0   XYZ
    dof rx ry rz
    limits (-20.0 45.0)
           (-30.0 30.0)
           (-30.0 30.0)
  end
  begin
     id 12 
     name upperback
     direction 0.0272563 0.999411 -0.0208618   
     length 2.16443   
     axis 0 0 0   XYZ
    dof rx ry rz
    limits (-20.0 45.0)
           (-30.0 30.0)
           (-30.0 30.0)
  end
  begin
     id 13 
     name thorax
     direction 0.0254655 0.999174 0.0316806   
     length 2.19003   
     axis 0 0 0   XYZ
    dof rx ry rz
    limits (-20.0 45.0)
           (-30.0 30.0)
           (-30.0 30.0)
  end
  begin
     id 14 
     name lowerneck
     direction -0.0102178 0.988048 0.15381   
     length 1.61507   
     axis 0 0 0   XYZ
    dof rx ry rz
    limits (-20.0 45.0)
           (-30.0 30.0)
           (-30.0 30.0)
  end
  begin
     id 15 
     name upperneck
     direction -0.0061965 0.994088 -0.108398   
     length 1.64042   
     axis 0 0 0   XYZ
    dof rx ry rz
    limits (-20.0 45.0)
           (-30.0 30.0)
           (-30.0 30.0)
  end
  begin
     id 16
     name head
     direction -0.00151929 0.998591 -0.0530385  
     length 1.64343  
     axis 0 0 0   XYZ
    dof rx ry rz
    limits (-20.0 45.0)
           (-30.0 30.0)
           (-30.0 30.0)
  end
  begin
     id 17 
     name lclavicle
     direction 0.948974 0.284245 -0.136574  
     length 3.3483  
     axis 0 0 0   XYZ
    dof ry rz
    limits (-20.0 10.0)
           (0.0 20.0)
  end
  begin
     id 18 
     name lhumerus
     direction 1 -4.48961e-011 1.68576e-027   
     length 4.93485   
     axis -180 -30 -90   XYZ
    dof rx ry rz
    limits (-60.0 90.0)
           (-90.0 90.0)
           (-90.0 90.0)
  end
  begin
     id 19
     name lradius
     direction 1 -4.48965e-011 -2.46405e-027   
     length 3.41719   
     axis -180 -30 -90   XYZ
    dof rx
    limits (-10.0 170.0)
  end
  begin
     id 20
     name lwrist
     direction 1 -4.48968e-011 -8.00486e-028   
     length 1.7086   
     axis 3.27501e-015 90 90   XYZ
    dof ry
    limits (-180.0 0.0)
 end
  begin
     id 21 
     name lhand
     direction 1 -4.48977e-011 -1.60161e-027   
     length 0.6241   
     axis 1.02148e-015 90 90   XYZ
    dof rx rz
    limits (-90.0 90.0)
           (-45.0 45.0)
  end
  begin
     id 22 
     name lfingers
     direction 1 -4.49049e-011 -3.21275e-027   
     length 0.503166   
     axis 2.04295e-015 90 90   XYZ
    dof rx
    limits (0.0 90.0)
  end
  begin
     id 23
     name lthumb
     direction 0.707107 -6.34975e-011 0.707107   
     length 0.722448   
     axis -90 45 -1.62303e-014   XYZ
    dof rx rz
    limits (-45.0 45.0)
           (-45.0 45.0)
  end
  begin
     id 24 
     name rclavicle
     direction -0.904485 0.355099 -0.236246   
     length 3.18329  
     axis 0 0 0   XYZ 
    dof ry rz
    limits (-10.0 20.0)
           (-20.0 0.0)
  end
  begin
     id 25 
     name rhumerus
     direction -1 -4.48953e-011 1.32816e-027  
     length 5.22034   
     axis -180 30 90   XYZ
    dof rx ry rz
    limits (-90.0 60.0)
           (-90.0 90.0)
           (-90.0 90.0)
  end
  begin
     id 26 
     name rradius
     direction -1 -4.48965e-011 -3.93727e-027   
     length 3.41809   
     axis -180 30 90   XYZ
    dof rx
    limits (-10.0 170.0)
  end
  begin
     id 27 
     name rwrist
     direction -1 -4.48962e-011 -8.003e-028   
     length 1.70904   
     axis 3.27501e-015 -90 -90   XYZ
    dof ry
    limits (-180.0 0.0)
  end
  begin
     id 28
     name rhand
     direction -1 -4.49008e-011 -1.60365e-027   
     length 0.77534   
     axis 1.02148e-015 -90 -90   XYZ
    dof rx rz
    limits (-90.0 90.0)
           (-45.0 45.0)
  end
  begin
     id 29
     name rfingers
     direction -1 -4.49001e-011 -3.2064e-027   
     length 0.625099   
     axis 2.04295e-015 -90 -90   XYZ
    dof rx
    limits (0.0 90.0)
  end
  begin
     id 30
     name rthumb
     direction -0.707107 -6.34989e-011 0.707107   
     length 0.897521   
     axis -90 -45 1.62303e-014   XYZ
    dof rx rz
    limits (-45.0 45.0)
           (-45.0 45.0)
  end
:hierarchy
  begin
    root lhipjoint rhipjoint lowerback
    lhipjoint lfemur
    lfemur ltibia
    ltibia lfoot
    lfoot ltoes
    rhipjoint rfemur
    rfemur rtibia
    rtibia rfoot
    rfoot rtoes
    lowerback upperback
    upperback thorax
    thorax lowerneck lclavicle rclavicle
    lowerneck upperneck
    upperneck head
    lclavicle lhumerus
    lhumerus lradius
    lradius lwrist
    lwrist lhand lthumb
    lhand lfingers
    rclavicle rhumerus
    rhumerus rradius
    rradius rwrist
    rwrist rhand rthumb
    rhand rfingers
  end

#!OML:ASF \\sashay\E\Suitcase\Project 1\Capture day 1\Session 1\Male1.ASF
:FULLY-SPECIFIED
:DEGREES
313
root 1.62127 17.4711 -25.6821 1.02249 1.79053 4.75535
lowerback 5.20101 -1.0531 -5.79165
upperback 0.504841 -1.76227 -1.10439
thorax -2.25702 -0.828493 2.2297
lowerneck -18.7851 -1.3403 1.56139
upperneck 16.7611 -1.48134 -3.84386
head 8.25566 -1.00672 -1.73239
rclavicle -1.37907e-014 1.78906e-014
rhumerus -36.9712 -26.8153 -67.5028
rradius 20.422
rwrist 1.29282
rhand -17.8802 28.8611
rfingers 7.12502
rthumb 8.38593 -0.952456
lclavicle -1.37907e-014 1.78906e-014
lhumerus -34.1134 8.01622 77.7358
lradius 34.208
lwrist -4.43105
lhand -3.55184 40.1428
lfingers 7.12502
lthumb 22.1843 68.8898
rfemur -7.9774 -6.02888 14.727
rtibia 63.5154
rfoot -2.97041 -11.6793
rtoes 33.1844
lfemur -10.9343 1.35246 -28.8275
ltibia 18.0937
lfoot -15.5111 -5.55924
ltoes 4.7169
314
root 1.6424 17.4633 -25.6023 0.66939 2.37175 4.69899
lowerback 5.56497 -1.28759 -5.56248
upperback 0.768479 -2.07667 -1.16161
thorax -2.17288 -0.994066 2.06946
lowerneck -19.1725 -1.20882 1.66397
upperneck 16.97 -1.31191 -3.92141
head 8.39787 -0.931541 -1.76289
rclavicle 2.63856e-014 6.5102e-015
rhumerus -36.8423 -26.6835 -67.7717
rradius 20.1942
rwrist 1.05135
rhand -18.1369 28.7543
rfingers 7.12502
rthumb 8.13821 -1.06904
lclavicle 2.63856e-014 6.5102e-015
lhumerus -33.7875 7.73937 77.7195
lradius 34.7107
lwrist -3.99212
lhand -3.80279 41.2351
lfingers 7.12502
lthumb 21.9433 70.0106
rfemur -8.65738 -6.73276 14.7401
rtibia 64.3239
rfoot -3.57375 -11.1459
rtoes 30.6037
lfemur -10.2557 0.710223 -28.8795
ltibia 18.3392
lfoot -15.9236 -5.24627
ltoes 5.13328
315
root 1.64665 17.4624 -25.5153 0.358625 2.60034 4.47337
lowerback 5.90307 -1.5107 -5.26312
upperback 0.911036 -2.37296 -1.19241
thorax -2.20551 -1.14547 1.89935
lowerneck -19.3146 -1.09656 1.64075
upperneck 17.2197 -1.17929 -3.76684
head 8.51289 -0.855593 -1.69577
rclavicle 3.37934e-015 -1.19271e-015
rhumerus -37.1035 -26.9769 -67.7566
rradius 20.1666
rwrist 1.65849
rhand -17.811 28.4511
rfingers 7.12502
rthumb 8.45274 -1.3597
lclavicle 3.37934e-015 -1.19271e-015
lhumerus -33.5243 7.72981 77.3972
lradius 34.9808
lwrist -3.91896
lhand -3.36296 41.9981
lfingers 7.12502
lthumb 22.3656 70.7234
rfemur -9.39942 -6.78437 15.1586
rtibia 64.9523
rfoot -4.43413 -10.7708
rtoes 27.9446
lfemur -9.80898 0.445964 -28.6661
ltibia 18.5823
lfoot -15.8975 -5.08254
ltoes 5.58437
316
root 1.66072 17.4484 -25.4271 0.402312 3.09582 4.90644
lowerback 6.04806 -1.67701 -5.66816
upperback 0.784823 -2.63814 -1.29167
thorax -2.38506 -1.26726 2.04921
lowerneck -18.8276 -1.2693 1.57576
upperneck 17.0879 -1.39098 -3.79743
head 8.37638 -0.959422 -1.71372
rclavicle -2.24378e-014 -1.3418e-014
rhumerus -37.6069 -26.3506 -67.7779
rradius 20.2588
rwrist 1.03244
rhand -18.3153 27.9567
rfingers 7.12502
rthumb 7.96602 -1.87315
lclavicle -2.24378e-014 -1.3418e-014
lhumerus -33.647 7.40297 77.3991
lradius 35.384
lwrist -3.59356
lhand -3.34508 42.1651
lfingers 7.12502
lthumb 22.3827 70.8884
rfemur -10.5092 -7.3391 14.646
rtibia 65.5445
rfoot -4.85125 -9.73541
rtoes 25.5463
lfemur -9.61733 0.23966 -29.2462
ltibia 18.9132
lfoot -16.1917 -5.33749
ltoes 6.16583
317
root 1.67484 17.4451 -25.3458 0.334818 3.34449 4.75439
lowerback 6.12178 -1.81904 -5.50097
upperback 0.864962 -2.81709 -1.27112
thorax -2.33667 -1.36038 1.99129
lowerneck -18.4658 -1.12332 1.84808
upperneck 16.7432 -1.17959 -4.24419
head 8.19843 -0.885202 -1.873
rclavicle -2.95071e-015 -5.56597e-015
rhumerus -37.7086 -26.6645 -67.6275
rradius 19.8834
rwrist 1.32019
rhand -18.3078 28.0488
rfingers 7.12502
rthumb 7.97327 -1.78084
lclavicle -2.95071e-015 -5.56597e-015
lhumerus -33.4833 7.12094 77.344
lradius 35.8465
lwrist -3.28075
lhand -3.31546 43.3274
lfingers 7.12502
lthumb 22.4112 72.0472
rfemur -11.5796 -7.50266 14.9124
rtibia 65.9808
rfoot -5.98368 -9.03901
rtoes 18.7589
lfemur -9.41206 0.0135049 -29.1596
ltibia 19.2133
lfoot -16.3336 -5.22655
ltoes 5.76427
318
root 1.67904 17.4371 -25.2619 0.159072 3.69352 4.82612
lowerback 6.29004 -1.91864 -5.702
upperback 1.13669 -2.96073 -1.21722
thorax -2.12545 -1.44059 2.16912
lowerneck -19.0433 -1.15069 1.17943
upperneck 17.0224 -1.17994 -3.50172
head 8.40387 -0.855603 -1.52432
rclavicle 1.72756e-014 -8.10048e-015
rhumerus -37.5435 -26.9198 -67.4837
rradius 19.7448
rwrist 1.29743
rhand -17.4663 27.8609
rfingers 7.12502
rthumb 8.78536 -1.93624
lclavicle 1.72756e-014 -8.10048e-015
lhumerus -32.848 6.86488 77.5087
lradius 36.044
lwrist -3.0852
lhand -3.1746 43.1133
lfingers 7.12502
lthumb 22.5464 71.8169
rfemur -12.4219 -7.79631 14.8983
rtibia 66.3192
rfoot -6.96476 -8.18371
rtoes 16.3239
lfemur -9.00566 -0.543738 -29.2653
ltibia 19.536
lfoot -16.6307 -4.96442
ltoes 7.05825
319
root 1.6899 17.4298 -25.189 0.30764 3.90604 4.90836
lowerback 6.46705 -1.89566 -5.9141
upperback 0.905115 -2.96635 -1.15452
thorax -2.44982 -1.42791 2.36561
lowerneck -18.7177 -1.20769 1.48488
upperneck 17.0382 -1.2364 -4.01182
head 8.34467 -0.914402 -1.74994
rclavicle -1.05822e-014 -5.96354e-016
rhumerus -38.1719 -27.5267 -66.6491
rradius 19.2628
rwrist 1.86342
rhand -18.0541 27.7495
rfingers 7.12502
rthumb 8.21817 -2.07066
lclavicle -1.05822e-014 -5.96354e-016
lhumerus -33.0583 6.3388 77.7071
lradius 36.4323
lwrist -3.11489
lhand -3.16811 43.1941
lfingers 7.12502
lthumb 22.5526 71.8969
rfemur -13.7329 -7.80232 14.9162
rtibia 66.6025
rfoot -8.16978 -7.27984
rtoes 15.3379
lfemur -9.10978 -0.734776 -29.4373
ltibia 20.0214
lfoot -16.9243 -4.81027
ltoes 7.37384
